<?xml version="1.0" standalone="no"?>
<!DOCTYPE svg PUBLIC "-//W3C//DTD SVG 20010904//EN"
 "http://www.w3.org/TR/2001/REC-SVG-20010904/DTD/svg10.dtd">
<svg version="1.0" xmlns="http://www.w3.org/2000/svg"
 width="512.000000pt" height="512.000000pt" viewBox="0 0 512.000000 512.000000"
 preserveAspectRatio="xMidYMid meet">
<metadata>
Created by potrace 1.16, written by Peter Selinger 2001-2019
</metadata>
<g transform="translate(0.000000,512.000000) scale(0.100000,-0.100000)"
fill="#000000" stroke="none">
<path d="M2445 5038 c-48 -38 -55 -70 -55 -268 0 -198 7 -230 55 -268 15 -12
41 -22 56 -22 l29 0 0 -94 0 -94 -124 -3 c-118 -4 -126 -6 -192 -39 -50 -25
-79 -49 -106 -85 -69 -91 -68 -86 -68 -604 l0 -466 29 -60 c31 -64 79 -116
149 -159 l42 -27 -2 -212 -3 -212 -48 -26 c-69 -37 -121 -93 -154 -163 -27
-60 -28 -63 -31 -294 l-4 -232 -508 0 -509 0 -20 -26 c-26 -33 -27 -75 -2
-105 l19 -24 816 -3 816 -2 0 -150 0 -150 -1115 0 -1115 0 0 149 0 150 161 3
c155 3 161 4 180 27 25 30 24 72 -2 105 l-20 26 -192 0 c-288 0 -287 1 -287
-311 0 -163 3 -207 16 -234 21 -44 54 -65 114 -72 l50 -6 0 -438 0 -439 -184
0 c-170 0 -185 -1 -210 -21 -33 -26 -37 -88 -6 -119 20 -20 33 -20 2540 -20
2507 0 2520 0 2540 20 31 31 27 93 -6 119 -25 19 -40 21 -200 21 l-174 0 0
210 c0 192 7 274 75 928 42 394 77 738 78 764 3 60 -25 92 -78 92 -75 0 -67
40 -152 -772 l-77 -732 -388 0 -387 0 -5 33 c-8 43 -216 2041 -216 2067 0 20
7 20 610 20 l611 0 -5 -32 c-3 -18 -13 -102 -21 -187 -16 -150 -16 -155 3
-180 29 -40 110 -41 131 -2 6 10 26 168 46 351 l35 332 -20 44 c-15 35 -29 49
-62 64 -41 19 -69 20 -540 20 l-498 0 0 134 0 135 62 -26 c91 -37 180 -53 294
-53 345 0 645 231 735 567 28 103 30 278 4 378 -55 218 -204 405 -399 500
-131 65 -197 80 -346 79 -137 0 -208 -15 -316 -64 -210 -95 -371 -289 -423
-508 l-18 -77 -46 -3 -47 -3 0 95 0 96 25 0 c39 0 83 27 100 60 12 23 15 70
15 230 0 160 -3 207 -15 230 -31 60 -28 60 -543 60 -466 0 -469 0 -497 -22z
m895 -263 l0 -135 -395 0 -395 0 0 135 0 135 395 0 395 0 0 -135z m993 0 c117
-25 210 -77 302 -169 120 -122 177 -254 179 -416 2 -337 -267 -610 -602 -610
-166 0 -302 57 -423 179 -122 121 -179 257 -179 423 0 167 59 308 179 428 149
148 344 208 544 165z m-1133 -390 l0 -95 -255 0 -255 0 0 95 0 95 255 0 255 0
0 -95z m258 -328 c22 -145 100 -302 201 -404 40 -41 41 -44 41 -113 l0 -70
-104 0 c-101 0 -105 -1 -125 -26 -24 -30 -27 -71 -7 -96 21 -28 62 -38 152
-38 l84 0 0 -40 0 -40 -92 0 c-51 0 -109 -5 -129 -10 -51 -14 -90 -59 -96
-112 -4 -36 95 -1041 112 -1145 l6 -33 -661 0 -660 0 0 79 c0 43 3 92 6 109
l6 31 472 3 c524 3 504 1 546 71 19 30 20 53 20 422 0 369 -1 392 -20 422 -39
64 -31 63 -545 63 l-465 0 0 90 0 90 484 0 c311 0 494 4 512 10 55 21 70 77
33 124 l-20 26 -505 0 -504 0 0 268 c0 258 1 268 23 306 14 25 39 48 66 63
l44 23 557 0 556 0 12 -73z m1352 -1032 l0 -45 -629 0 -628 0 -7 31 c-3 17 -6
38 -6 45 0 12 103 14 635 14 l635 0 0 -45z m-1740 -385 l0 -330 -349 0 -348 0
24 48 c24 46 24 50 21 299 -3 244 -4 252 -26 282 l-23 31 351 0 350 0 0 -330z
m507 -1455 c52 -501 62 -619 62 -782 l1 -193 -510 0 -510 0 0 440 0 440 28 0
c15 0 37 3 50 6 l22 6 0 -346 0 -347 25 -24 c15 -16 36 -25 55 -25 19 0 40 9
55 25 l25 24 0 501 0 501 -25 24 c-13 14 -33 25 -44 25 -17 0 -19 9 -23 90 -3
86 -4 91 -36 122 l-32 33 -270 3 -270 3 0 35 0 34 667 -2 667 -3 63 -590z
m-1117 -145 l0 -50 -357 0 c-480 0 -453 18 -453 -305 0 -212 5 -240 55 -285
l27 -25 364 -3 364 -3 0 -79 0 -80 -940 0 -940 0 0 440 0 440 940 0 940 0 0
-50z m0 -360 l0 -150 -325 0 -325 0 0 150 0 150 325 0 325 0 0 -150z m2100
-305 l0 -165 -380 0 -380 0 0 165 0 165 380 0 380 0 0 -165z"/>
<path d="M4091 4735 c-247 -54 -425 -262 -439 -512 -9 -182 41 -319 163 -440
113 -111 240 -163 398 -163 255 1 470 165 542 415 23 79 23 221 0 300 -44 156
-152 285 -295 353 -129 62 -237 75 -369 47z m212 -160 c159 -41 269 -156 302
-314 27 -129 -10 -255 -106 -356 -163 -173 -438 -165 -593 17 -20 23 -49 67
-64 98 -24 49 -27 66 -27 160 0 97 2 110 32 172 52 110 148 191 263 222 72 19
123 19 193 1z"/>
<path d="M4184 4560 c-26 -10 -54 -48 -54 -71 0 -10 -15 -20 -40 -28 -112 -33
-161 -150 -109 -257 33 -70 74 -88 204 -94 94 -4 110 -7 113 -22 3 -16 -8 -18
-122 -18 -72 0 -136 -5 -150 -11 -50 -23 -57 -103 -13 -134 12 -8 42 -15 67
-15 41 0 46 -3 60 -33 9 -18 27 -36 43 -41 39 -14 79 3 97 41 9 19 23 33 33
33 31 0 95 39 118 71 24 34 37 117 25 163 -8 33 -63 95 -95 109 -14 6 -73 13
-131 16 -84 5 -105 9 -105 21 0 12 19 15 105 17 138 4 148 7 166 48 24 58 -15
115 -78 115 -23 0 -28 4 -28 25 0 24 -31 65 -49 65 -5 0 -15 2 -23 4 -7 3 -23
1 -34 -4z"/>
<path d="M3043 1436 l-28 -24 -3 -474 c-2 -260 0 -488 3 -506 3 -18 15 -42 26
-53 26 -26 83 -25 109 1 19 19 20 33 20 529 l0 510 -26 20 c-35 28 -67 26
-101 -3z"/>
<path d="M3336 1437 l-26 -26 0 -504 0 -504 23 -21 c32 -30 81 -29 113 3 l25
25 -3 504 c-3 561 1 531 -70 543 -30 4 -41 1 -62 -20z"/>
<path d="M698 860 c-25 -26 -29 -36 -24 -63 10 -53 37 -67 126 -67 89 0 116
14 126 67 5 27 1 37 -24 63 -28 28 -36 30 -102 30 -66 0 -74 -2 -102 -30z"/>
<path d="M1015 880 c-51 -20 -65 -90 -25 -130 18 -18 33 -20 169 -20 l150 0
20 26 c35 45 26 95 -20 119 -31 17 -257 21 -294 5z"/>
<path d="M698 630 c-25 -26 -29 -36 -24 -63 13 -66 15 -67 341 -67 l294 0 20
26 c26 33 27 75 2 105 l-19 24 -291 3 -292 3 -31 -31z"/>
<path d="M1107 3689 c-10 -6 -61 -65 -114 -132 -53 -67 -99 -125 -102 -129 -4
-4 -78 1 -165 13 -172 22 -202 20 -234 -14 -41 -43 -43 -66 -21 -233 11 -86
19 -160 17 -164 -2 -4 -59 -51 -128 -104 -68 -53 -130 -106 -137 -119 -17 -31
-16 -98 2 -124 9 -12 72 -65 140 -118 69 -53 125 -101 125 -108 0 -7 -9 -78
-20 -158 -22 -163 -17 -204 27 -239 31 -24 83 -26 233 -5 167 23 146 32 259
-113 98 -126 128 -152 176 -152 50 0 77 23 176 147 55 70 109 129 119 131 9 2
71 -4 136 -12 170 -23 206 -21 243 10 18 15 33 39 37 59 5 28 -17 252 -31 320
-3 17 16 36 93 95 143 111 181 147 188 184 11 62 -14 96 -150 200 -69 53 -127
100 -129 104 -2 4 5 80 16 170 19 154 19 165 4 198 -30 61 -66 69 -227 50 -74
-9 -147 -19 -162 -22 -25 -5 -35 5 -115 108 -123 158 -135 168 -192 168 -25 0
-54 -5 -64 -11z m147 -283 c113 -149 132 -156 325 -131 68 9 126 14 128 11 3
-3 -2 -66 -11 -140 -17 -132 -17 -136 2 -179 19 -44 79 -101 185 -177 26 -18
47 -37 47 -41 0 -4 -47 -44 -105 -89 -148 -115 -153 -126 -129 -318 9 -73 15
-134 13 -136 -2 -2 -51 3 -109 11 -124 17 -208 13 -243 -10 -14 -9 -62 -64
-108 -123 l-82 -107 -20 27 c-64 88 -147 183 -176 203 -40 27 -94 29 -246 9
-55 -7 -101 -13 -102 -12 -1 1 5 61 14 132 24 199 19 212 -142 335 -52 39 -92
75 -89 80 3 5 50 43 105 85 146 112 154 134 124 343 -8 57 -13 106 -11 108 2
3 66 -3 140 -12 189 -24 199 -20 314 126 47 60 88 109 91 109 3 -1 41 -47 85
-104z"/>
<path d="M813 3141 c-146 -68 -163 -298 -30 -404 75 -61 200 -44 261 35 37 49
48 86 49 159 0 165 -144 274 -280 210z"/>
<path d="M1267 3123 c-8 -10 -86 -166 -172 -348 -132 -280 -155 -335 -150
-362 10 -56 75 -81 121 -49 29 21 334 664 334 704 0 19 -8 40 -20 52 -26 26
-91 27 -113 3z"/>
<path d="M1387 2790 c-131 -39 -190 -229 -111 -356 43 -70 91 -96 175 -92 83
4 130 36 165 112 45 96 28 211 -41 282 -54 56 -119 75 -188 54z"/>
<path d="M4000 2550 c-12 -12 -20 -33 -20 -55 0 -22 8 -43 20 -55 18 -18 33
-20 178 -20 144 0 160 2 176 19 24 27 25 85 1 111 -17 19 -30 20 -177 20 -145
0 -160 -2 -178 -20z"/>
<path d="M3974 2290 c-11 -4 -33 -22 -47 -40 l-27 -32 0 -422 c0 -414 0 -424
21 -450 40 -51 63 -56 256 -56 202 0 232 8 265 70 17 32 18 66 18 433 0 440
-1 450 -62 487 -30 18 -49 20 -218 19 -102 0 -194 -4 -206 -9z m326 -495 l0
-345 -120 0 -120 0 0 345 0 345 120 0 120 0 0 -345z"/>
</g>
</svg>
