<?xml version="1.0" standalone="no"?>
<!DOCTYPE svg PUBLIC "-//W3C//DTD SVG 20010904//EN"
 "http://www.w3.org/TR/2001/REC-SVG-20010904/DTD/svg10.dtd">
<svg version="1.0" xmlns="http://www.w3.org/2000/svg"
 width="512.000000pt" height="512.000000pt" viewBox="0 0 512.000000 512.000000"
 preserveAspectRatio="xMidYMid meet">
<metadata>
Created by potrace 1.16, written by Peter Selinger 2001-2019
</metadata>
<g transform="translate(0.000000,512.000000) scale(0.100000,-0.100000)"
fill="#000000" stroke="none">
<path d="M74 4908 c-22 -10 -42 -41 -45 -68 -5 -47 6 -66 85 -148 l85 -88 -99
-664 c-55 -366 -100 -685 -100 -709 0 -41 5 -48 83 -130 46 -47 674 -700 1396
-1451 722 -751 1330 -1382 1351 -1402 46 -45 82 -56 120 -37 24 12 446 414
1121 1067 l117 113 78 -28 c70 -24 93 -27 204 -27 110 0 135 4 205 28 197 68
339 207 413 404 33 90 42 275 18 372 -55 220 -213 392 -428 467 -183 64 -440
28 -585 -83 -17 -13 -34 -24 -36 -24 -3 0 -505 519 -1117 1154 -611 635 -1118
1157 -1126 1160 -29 11 -136 6 -809 -38 l-670 -44 -74 79 c-96 104 -133 123
-187 97z m1675 -282 c9 -11 -116 -137 -661 -661 -370 -357 -706 -680 -745
-719 l-73 -70 -40 39 c-23 22 -40 49 -40 61 0 22 155 1071 166 1128 l6 28 57
-56 58 -57 -14 -54 c-26 -100 7 -199 88 -268 46 -40 97 -57 169 -57 75 0 125
18 175 62 61 53 88 114 88 197 1 83 -24 142 -83 194 -70 64 -143 82 -251 64
l-46 -8 -47 56 c-44 51 -46 55 -24 56 13 0 277 18 588 39 311 21 577 38 591
39 15 0 32 -5 38 -13z m1166 -1214 l1014 -1054 -24 -36 c-37 -57 -72 -159 -85
-251 -28 -187 37 -391 169 -534 l39 -42 -261 -252 -262 -252 -565 -1 -565 0
-987 1025 -987 1025 137 133 c488 476 1347 1297 1354 1295 5 -2 465 -477 1023
-1056z m-2140 843 c27 -26 31 -54 13 -88 -27 -52 -83 -62 -123 -22 -50 49 -15
135 55 135 19 0 40 -9 55 -25z m3794 -1810 c238 -56 400 -290 364 -524 -49
-318 -383 -496 -668 -356 -119 57 -203 154 -246 282 -17 53 -21 82 -17 162 3
86 7 104 41 175 63 133 187 232 327 262 76 17 124 16 199 -1z m-1449 -1825
c-107 -104 -198 -189 -201 -190 -3 0 -87 86 -188 190 l-183 190 384 0 383 0
-195 -190z"/>
<path d="M1598 3962 c-9 -4 -137 -121 -282 -261 -279 -266 -291 -282 -268
-341 5 -14 52 -66 103 -116 107 -103 144 -119 253 -112 49 3 75 11 112 34 57
35 109 107 119 164 6 35 10 40 34 40 39 0 126 46 157 83 45 53 64 106 64 177
0 88 -23 134 -116 233 -96 105 -124 120 -176 99z m64 -249 c54 -59 59 -88 22
-132 -37 -44 -73 -42 -127 8 l-42 40 55 55 c30 31 57 56 60 56 4 0 18 -12 32
-27z m-250 -240 c54 -59 59 -102 16 -143 -34 -32 -73 -26 -121 19 l-42 40 55
55 c30 31 57 56 60 56 4 0 18 -12 32 -27z"/>
<path d="M1957 3473 c-187 -171 -488 -470 -493 -490 -16 -61 25 -113 89 -113
39 0 48 6 144 96 57 52 107 93 111 90 5 -3 -18 -82 -51 -175 -63 -180 -65
-203 -25 -241 31 -29 98 -27 125 3 12 12 43 83 69 157 l48 135 75 0 c87 0 134
18 189 73 51 52 72 105 72 187 0 97 -22 139 -128 246 -79 80 -91 89 -125 89
-31 0 -47 -9 -100 -57z m137 -213 c44 -49 46 -81 7 -121 -40 -39 -64 -37 -118
14 l-45 43 53 52 c30 28 57 52 60 52 4 0 23 -18 43 -40z"/>
<path d="M2610 2895 c-111 -42 -686 -297 -700 -310 -25 -22 -31 -64 -15 -102
25 -60 71 -67 165 -26 l61 26 79 -78 c106 -106 108 -110 75 -175 -15 -29 -27
-69 -27 -87 0 -63 61 -103 124 -81 33 12 43 30 252 468 69 146 126 274 126
283 0 34 -29 75 -61 86 -38 13 -35 13 -79 -4z"/>
<path d="M2809 2368 c-420 -402 -379 -358 -379 -406 0 -59 33 -92 91 -92 39 0
47 5 178 135 76 74 140 135 143 135 3 0 -21 -102 -53 -227 -32 -126 -59 -246
-59 -269 0 -65 63 -107 122 -81 30 13 500 460 536 509 31 43 29 83 -7 119 -31
31 -67 37 -104 18 -12 -7 -80 -68 -150 -137 -70 -68 -130 -123 -132 -121 -2 3
23 110 55 239 33 129 60 245 60 258 0 37 -52 82 -95 82 -33 0 -50 -13 -206
-162z"/>
<path d="M3346 1923 c-464 -447 -436 -418 -436 -464 0 -38 6 -47 70 -114 83
-84 161 -128 263 -147 188 -33 378 65 464 240 37 75 38 78 38 192 0 114 -1
117 -37 191 -35 70 -125 176 -168 199 -10 6 -33 10 -50 10 -27 0 -50 -17 -144
-107z m195 -188 c25 -53 25 -147 0 -200 -67 -145 -241 -195 -373 -107 l-40 26
183 177 c203 196 190 190 230 104z"/>
<path d="M4380 2273 l0 -67 -48 47 -48 47 -64 -65 -64 -65 44 -45 44 -45 -62
0 -62 0 0 -95 0 -95 57 0 57 0 -37 -38 c-20 -21 -37 -42 -37 -47 0 -5 28 -38
62 -72 l62 -63 48 47 48 47 0 -67 0 -67 90 0 90 0 0 67 0 67 48 -47 48 -47 64
65 64 65 -44 45 -44 45 62 0 62 0 0 95 0 95 -62 0 -62 0 44 45 44 45 -67 67
-67 67 -45 -44 -45 -44 0 62 0 62 -90 0 -90 0 0 -67z"/>
</g>
</svg>
