<?xml version="1.0" standalone="no"?>
<!DOCTYPE svg PUBLIC "-//W3C//DTD SVG 20010904//EN"
 "http://www.w3.org/TR/2001/REC-SVG-20010904/DTD/svg10.dtd">
<svg version="1.0" xmlns="http://www.w3.org/2000/svg"
 width="512.000000pt" height="512.000000pt" viewBox="0 0 512.000000 512.000000"
 preserveAspectRatio="xMidYMid meet">
<metadata>
Created by potrace 1.16, written by Peter Selinger 2001-2019
</metadata>
<g transform="translate(0.000000,512.000000) scale(0.100000,-0.100000)"
fill="#000000" stroke="none">
<path d="M2400 4444 c-212 -55 -391 -236 -445 -449 -19 -76 -19 -234 0 -310
55 -216 234 -395 450 -450 76 -19 234 -19 310 0 216 55 395 234 450 450 19 76
19 234 0 310 -55 216 -234 395 -450 450 -75 19 -241 19 -315 -1z"/>
<path d="M1317 3910 c-109 -28 -221 -120 -273 -225 -27 -56 -29 -68 -29 -175
0 -109 2 -119 32 -183 122 -257 466 -315 669 -113 199 199 141 537 -113 663
-66 33 -84 37 -161 40 -48 1 -104 -2 -125 -7z"/>
<path d="M3575 3903 c-160 -58 -259 -173 -284 -333 -36 -226 114 -434 343
-473 179 -30 360 65 439 230 30 64 32 74 32 183 0 107 -2 119 -29 175 -40 81
-119 158 -202 197 -86 40 -219 49 -299 21z"/>
<path d="M2008 3149 c-404 -122 -648 -326 -703 -586 -20 -94 -21 -520 -1 -566
17 -40 63 -84 96 -91 20 -5 29 0 45 26 25 40 46 46 165 47 l96 1 12 32 c12 32
11 33 -68 114 -56 57 -80 89 -80 106 0 85 333 418 418 418 17 0 49 -24 106
-80 81 -78 83 -80 113 -68 l31 12 4 114 c3 108 4 115 29 136 74 63 504 63 578
0 25 -21 26 -28 29 -136 l4 -114 31 -12 c30 -12 32 -10 113 68 57 56 89 80
106 80 85 0 418 -333 418 -418 0 -17 -24 -49 -80 -106 -78 -81 -80 -83 -68
-113 l12 -31 114 -4 c109 -3 115 -4 137 -30 13 -15 25 -32 27 -39 11 -33 106
38 127 94 17 44 14 477 -4 560 -41 197 -185 356 -430 477 -117 58 -297 124
-374 136 -31 5 -52 -1 -113 -30 -214 -103 -461 -103 -674 -1 -40 19 -83 35
-96 34 -13 0 -67 -13 -120 -30z"/>
<path d="M1039 3003 c-212 -60 -379 -174 -441 -301 l-33 -66 -3 -206 c-3 -187
-1 -208 15 -227 31 -37 319 -117 525 -146 l36 -5 4 256 c5 279 11 317 69 441
16 35 50 93 75 128 25 35 44 66 42 67 -1 2 -28 11 -58 19 -31 9 -76 27 -101
40 l-45 24 -85 -24z"/>
<path d="M3965 3010 c-16 -10 -60 -29 -99 -41 -39 -12 -73 -23 -74 -25 -2 -1
16 -31 41 -66 58 -82 91 -149 118 -240 19 -64 22 -103 26 -330 l5 -256 36 5
c204 29 494 110 525 146 17 19 18 40 15 231 l-3 211 -34 63 c-72 132 -234 239
-461 301 -65 18 -68 18 -95 1z"/>
<path d="M2413 2653 c-10 -3 -13 -38 -13 -123 l0 -118 -67 -22 c-36 -12 -93
-35 -126 -51 l-60 -31 -86 86 -86 86 -63 -51 c-35 -28 -88 -80 -118 -117 l-54
-66 86 -87 86 -86 -35 -70 c-20 -38 -43 -95 -52 -126 l-16 -57 -119 0 c-141 0
-132 12 -132 -160 0 -172 -9 -160 132 -160 l119 0 16 -57 c9 -31 32 -88 52
-126 l35 -70 -86 -86 -86 -87 54 -66 c56 -67 159 -158 179 -158 6 0 48 36 93
81 l81 81 60 -31 c33 -16 90 -39 126 -51 l67 -22 0 -118 c0 -98 3 -119 16
-124 20 -8 268 -8 288 0 13 5 16 26 16 124 l0 118 67 22 c36 12 93 35 126 51
l60 31 86 -86 86 -86 63 51 c35 28 88 80 118 117 l54 66 -86 87 -86 86 31 60
c16 33 39 90 51 126 l22 67 118 0 c98 0 119 3 124 16 3 9 6 73 6 144 0 71 -3
135 -6 144 -5 13 -26 16 -124 16 l-118 0 -22 67 c-12 36 -35 93 -51 126 l-31
60 86 86 86 86 -51 63 c-28 35 -80 88 -117 118 l-66 54 -87 -86 -86 -86 -60
31 c-33 16 -90 39 -126 51 l-67 22 0 118 c0 98 -3 119 -16 124 -19 7 -273 7
-291 -1z m333 -603 c89 -43 161 -115 205 -205 33 -67 34 -74 34 -185 0 -111
-1 -118 -34 -185 -44 -90 -116 -162 -206 -206 -67 -33 -74 -34 -185 -34 -111
0 -118 1 -185 34 -90 44 -162 116 -206 206 -33 67 -34 74 -34 185 0 109 2 118
32 180 40 82 88 138 154 181 88 56 140 70 255 67 91 -3 107 -7 170 -38z"/>
</g>
</svg>
