<?xml version="1.0" standalone="no"?>
<!DOCTYPE svg PUBLIC "-//W3C//DTD SVG 20010904//EN"
 "http://www.w3.org/TR/2001/REC-SVG-20010904/DTD/svg10.dtd">
<svg version="1.0" xmlns="http://www.w3.org/2000/svg"
 width="512.000000pt" height="512.000000pt" viewBox="0 0 512.000000 512.000000"
 preserveAspectRatio="xMidYMid meet">
<metadata>
Created by potrace 1.16, written by Peter Selinger 2001-2019
</metadata>
<g transform="translate(0.000000,512.000000) scale(0.100000,-0.100000)"
fill="#000000" stroke="none">
<path d="M2276 5101 c-15 -10 -37 -32 -47 -47 -18 -28 -19 -69 -19 -1184 0
-1115 1 -1156 19 -1184 10 -15 32 -37 47 -47 28 -18 69 -19 1184 -19 1115 0
1156 1 1184 19 15 10 37 32 47 47 18 28 19 69 19 1184 0 1115 -1 1156 -19
1184 -10 15 -32 37 -47 47 -28 18 -69 19 -1184 19 -1115 0 -1156 -1 -1184 -19z
m734 -534 c0 -217 2 -256 16 -277 25 -37 293 -307 338 -341 32 -24 49 -29 96
-29 47 0 64 5 96 29 45 34 313 304 338 341 14 21 16 60 16 277 l0 253 250 0
250 0 0 -950 0 -950 -950 0 -950 0 0 950 0 950 250 0 250 0 0 -253z m600 65
l0 -188 -75 -74 -75 -74 -75 74 -75 74 0 188 0 188 150 0 150 0 0 -188z"/>
<path d="M1430 2333 c-91 -14 -247 -61 -452 -136 l-97 -36 -11 34 c-21 62
-101 109 -166 98 -41 -7 -604 -212 -632 -229 -13 -9 -32 -29 -42 -47 -19 -31
-20 -58 -20 -977 0 -909 1 -946 19 -974 10 -15 32 -37 47 -47 27 -18 53 -19
404 -19 l375 0 299 109 c320 117 346 132 368 203 9 31 15 37 32 33 12 -3 305
-43 651 -91 567 -77 642 -86 745 -82 89 4 132 11 191 31 75 25 1705 873 1786
928 43 30 95 89 130 149 56 94 70 260 32 372 -48 143 -153 246 -299 293 -71
23 -206 23 -274 0 -26 -9 -218 -96 -425 -192 -207 -97 -409 -190 -448 -209
l-73 -33 -11 42 c-32 120 -123 233 -230 287 -64 33 -93 39 -409 96 -261 46
-352 78 -534 189 -151 91 -259 141 -378 174 -178 50 -393 63 -578 34z m468
-327 c115 -32 210 -75 327 -150 200 -127 325 -170 671 -232 148 -26 272 -53
289 -63 106 -61 96 -213 -17 -255 -42 -16 -50 -15 -549 73 -544 96 -555 97
-606 49 -79 -74 -68 -197 22 -249 25 -15 825 -163 1045 -194 89 -13 232 28
312 88 35 27 1195 570 1239 580 42 10 94 -11 133 -53 31 -35 36 -47 36 -91 0
-55 -18 -93 -54 -121 -50 -37 -1666 -877 -1716 -892 -30 -9 -81 -16 -114 -16
-66 -1 -1476 189 -1489 200 -9 8 -438 1182 -433 1187 10 10 362 133 421 146
110 26 113 26 255 22 105 -3 156 -10 228 -29z m-996 -811 c148 -406 265 -742
261 -746 -5 -4 -95 -39 -202 -78 l-195 -71 -228 0 -228 0 0 763 0 762 153 56
c83 31 156 56 161 55 5 -1 130 -334 278 -741z"/>
</g>
</svg>
