<?xml version="1.0" standalone="no"?>
<!DOCTYPE svg PUBLIC "-//W3C//DTD SVG 20010904//EN"
 "http://www.w3.org/TR/2001/REC-SVG-20010904/DTD/svg10.dtd">
<svg version="1.0" xmlns="http://www.w3.org/2000/svg"
 width="512.000000pt" height="512.000000pt" viewBox="0 0 512.000000 512.000000"
 preserveAspectRatio="xMidYMid meet">
<metadata>
Created by potrace 1.16, written by Peter Selinger 2001-2019
</metadata>
<g transform="translate(0.000000,512.000000) scale(0.100000,-0.100000)"
fill="#000000" stroke="none">
<path d="M1788 4816 c-98 -35 -166 -95 -215 -189 -27 -50 -28 -58 -31 -234
l-4 -183 -742 0 c-737 0 -744 0 -770 -21 -26 -20 -26 -22 -26 -153 0 -150 4
-159 75 -171 85 -16 128 -59 141 -142 3 -23 12 -48 20 -54 11 -9 14 -61 14
-265 l0 -254 -80 0 c-54 0 -91 -5 -111 -16 -53 -27 -59 -58 -59 -311 0 -208 2
-231 20 -260 27 -45 51 -55 147 -61 l83 -5 0 -288 c0 -193 4 -296 11 -313 23
-50 103 -57 134 -13 12 18 15 73 15 319 l0 298 2155 0 2155 0 0 -304 0 -305
26 -20 c15 -12 37 -21 49 -21 12 0 34 9 49 21 l26 20 0 305 0 304 58 0 c92 0
131 10 163 42 l29 30 0 255 0 255 -34 34 c-34 34 -35 34 -125 34 l-91 0 0 254
c0 204 3 256 14 265 8 6 17 31 20 54 13 83 56 126 141 142 71 12 75 21 75 171
0 131 0 133 -26 153 -26 21 -34 21 -669 21 -635 0 -643 0 -669 -21 -35 -27
-36 -86 -3 -117 l23 -22 597 0 c573 0 597 -1 597 -18 0 -13 -12 -22 -39 -30
-54 -17 -125 -83 -157 -147 l-26 -55 -584 0 -583 0 -3 388 -3 387 -28 53 c-39
75 -87 124 -159 163 l-63 34 -750 2 c-600 2 -757 0 -787 -11z m1525 -169 c26
-15 60 -47 75 -69 l27 -42 0 -482 0 -482 -30 -43 c-16 -23 -50 -53 -74 -66
l-44 -23 -707 0 -707 0 -44 23 c-24 13 -57 43 -74 66 l-30 43 -3 472 -3 472
24 44 c27 52 89 100 144 111 21 4 344 6 718 6 l680 -2 48 -28z m-1771 -849 c3
-250 3 -254 30 -310 34 -73 103 -142 176 -176 l57 -27 755 0 755 0 57 27 c109
51 195 169 206 280 l5 48 563 0 564 0 0 -245 0 -245 -2150 0 -2150 0 0 245 0
244 470 3 469 3 23 22 c27 27 28 85 2 114 -16 18 -35 19 -509 19 l-493 0 -26
55 c-32 64 -103 130 -157 147 -27 8 -39 17 -39 30 0 17 27 18 695 18 l694 0 3
-252z m3428 -973 l0 -165 -2405 0 -2405 0 0 165 0 165 2405 0 2405 0 0 -165z"/>
<path d="M1994 4530 c-28 -11 -54 -48 -54 -76 0 -12 9 -33 21 -48 18 -23 27
-26 85 -26 35 0 64 -1 64 -3 0 -2 23 -111 50 -243 56 -265 70 -297 143 -336
41 -22 50 -23 317 -23 374 0 351 -15 476 317 46 122 84 231 84 241 0 35 -30
87 -62 107 -31 19 -50 20 -379 20 -389 0 -384 1 -395 -72 -5 -30 -2 -41 19
-62 l26 -26 306 0 c168 0 305 -1 305 -2 0 -21 -135 -346 -147 -355 -24 -18
-452 -18 -475 0 -11 8 -31 87 -62 237 -56 270 -59 280 -94 313 -42 40 -170 61
-228 37z"/>
<path d="M2332 3697 c-30 -32 -29 -81 3 -112 26 -27 68 -32 109 -14 50 23 57
103 13 134 -34 24 -100 19 -125 -8z"/>
<path d="M2663 3705 c-44 -31 -37 -111 13 -134 66 -30 134 4 134 68 0 51 -32
81 -86 81 -22 0 -49 -7 -61 -15z"/>
<path d="M2067 2025 c-22 -7 -50 -24 -64 -37 -54 -49 -53 -30 -53 -818 l0
-730 -770 0 -770 0 0 613 0 614 -23 21 c-34 32 -89 30 -116 -4 -21 -26 -21
-34 -21 -668 0 -493 3 -647 13 -666 7 -13 28 -35 46 -47 l34 -23 2217 0 2217
0 34 23 c18 12 39 34 46 47 10 19 13 173 13 666 0 634 0 642 -21 668 -27 35
-86 36 -117 3 l-22 -23 0 -612 0 -612 -770 0 -770 0 0 730 c0 595 -3 737 -14
763 -17 42 -66 83 -114 97 -60 16 -927 13 -975 -5z m941 -867 l2 -718 -450 0
-450 0 0 713 c0 393 3 717 7 720 3 4 205 6 447 5 l441 -3 3 -717z"/>
<path d="M2155 1215 c-16 -15 -25 -36 -25 -55 0 -19 9 -40 25 -55 20 -21 34
-25 85 -25 51 0 65 4 85 25 16 15 25 36 25 55 0 19 -9 40 -25 55 -20 21 -34
25 -85 25 -51 0 -65 -4 -85 -25z"/>
<path d="M636 1870 c-41 -13 -94 -68 -106 -110 -6 -20 -10 -213 -10 -465 0
-398 2 -433 19 -471 10 -23 34 -52 52 -65 l34 -24 527 0 c516 0 527 0 554 21
15 11 37 33 48 48 20 27 21 41 24 483 3 445 2 456 -18 499 -13 26 -36 53 -58
66 l-37 23 -500 2 c-275 1 -513 -2 -529 -7z m984 -565 l0 -415 -470 0 -470 0
0 408 c0 225 3 412 7 415 3 4 215 7 470 7 l463 0 0 -415z"/>
<path d="M3459 1870 c-46 -14 -78 -41 -99 -85 -20 -41 -21 -54 -18 -498 3
-442 4 -456 24 -483 11 -15 33 -37 48 -48 27 -21 38 -21 554 -21 l527 0 34 24
c18 13 42 42 52 65 17 38 19 73 19 471 0 252 -4 445 -10 465 -12 45 -65 97
-111 110 -40 12 -981 12 -1020 0z m979 -567 l2 -413 -470 0 -470 0 0 415 0
415 468 -2 467 -3 3 -412z"/>
</g>
</svg>
